<?xml version="1.0" standalone="no"?>
<!DOCTYPE svg PUBLIC "-//W3C//DTD SVG 20010904//EN"
 "http://www.w3.org/TR/2001/REC-SVG-20010904/DTD/svg10.dtd">
<svg version="1.0" xmlns="http://www.w3.org/2000/svg"
 width="256.000000pt" height="256.000000pt" viewBox="0 0 256.000000 256.000000"
 preserveAspectRatio="xMidYMid meet">
<metadata>
Created by potrace 1.11, written by Peter Selinger 2001-2013
</metadata>
<g transform="translate(0.000000,256.000000) scale(0.100000,-0.100000)"
fill="#000000" stroke="none">
<path d="M970 2545 c-14 -17 -6 -83 15 -130 19 -41 82 -100 127 -118 28 -12
83 -16 229 -17 196 -1 219 -5 219 -39 0 -40 -12 -41 -372 -41 l-348 0 -38 -34
c-33 -31 -37 -39 -37 -85 0 -44 4 -55 33 -83 l32 -33 185 -5 c129 -4 188 -9
197 -18 7 -7 19 -31 28 -55 17 -46 47 -60 69 -33 19 22 4 91 -27 128 -43 51
-73 58 -257 58 l-165 0 -12 25 c-24 53 -19 54 368 57 l354 3 32 33 c28 28 33
39 33 82 0 43 -5 54 -33 82 l-32 33 -213 5 c-143 4 -219 9 -234 18 -36 20 -72
75 -79 120 -9 55 -47 80 -74 47z"/>
<path d="M640 1752 c-31 -14 -56 -38 -68 -65 -9 -22 -12 -120 -12 -386 1 -309
3 -366 19 -427 10 -38 23 -79 29 -91 14 -26 16 -53 3 -53 -5 0 -14 13 -21 29
-20 49 -104 127 -175 162 -61 30 -75 33 -188 37 -157 6 -151 11 -145 -148 5
-109 8 -125 37 -185 18 -35 50 -83 72 -105 l40 -40 -104 0 c-124 0 -132 -5
-122 -77 18 -137 139 -243 276 -243 35 0 40 -4 53 -35 20 -48 76 -99 124 -113
29 -9 255 -12 833 -12 751 0 796 1 834 19 48 22 79 54 100 104 14 35 18 37 60
37 67 0 144 33 193 83 65 66 104 191 70 225 -9 9 -119 12 -432 12 l-421 1 30
21 c17 12 65 56 107 100 l78 78 78 0 c43 0 103 7 134 15 168 44 312 195 349
367 15 68 5 198 -19 264 -61 165 -222 291 -394 310 -44 5 -58 11 -58 23 0 23
-35 73 -62 87 -18 11 -159 13 -653 13 -346 0 -637 -3 -645 -7z m1465 -379 c82
-41 127 -116 129 -213 1 -121 -80 -216 -201 -236 l-38 -6 3 242 3 241 37 -7
c20 -4 51 -13 67 -21z"/>
</g>
</svg>
