<?xml version="1.0" standalone="no"?>
<!DOCTYPE svg PUBLIC "-//W3C//DTD SVG 20010904//EN"
 "http://www.w3.org/TR/2001/REC-SVG-20010904/DTD/svg10.dtd">
<svg version="1.0" xmlns="http://www.w3.org/2000/svg"
 width="512.000000pt" height="512.000000pt" viewBox="0 0 512.000000 512.000000"
 preserveAspectRatio="xMidYMid meet">
<metadata>
Created by potrace 1.11, written by Peter Selinger 2001-2013
</metadata>
<g transform="translate(0.000000,512.000000) scale(0.100000,-0.100000)"
fill="#000000" stroke="none">
<path d="M2320 4949 c-215 -26 -356 -58 -535 -119 -121 -42 -138 -48 -276
-114 -291 -136 -611 -392 -819 -651 -287 -360 -462 -783 -517 -1255 -12 -102
-9 -456 6 -550 7 -47 15 -101 17 -120 26 -179 126 -473 229 -674 229 -445 579
-798 1025 -1033 174 -92 505 -209 640 -227 8 -1 31 -5 50 -9 127 -24 214 -31
410 -31 164 -1 330 8 363 19 7 2 28 6 47 9 97 15 235 48 318 77 72 25 81 24
93 -8 44 -117 199 -137 276 -36 25 32 28 46 31 124 l4 87 51 28 c29 15 100 60
160 100 l107 72 1 -172 c1 -197 0 -196 28 -234 34 -48 70 -66 132 -67 46 0 62
5 92 28 65 49 67 62 67 419 l0 319 43 47 c69 76 237 301 237 318 0 3 9 18 20
34 44 62 188 369 206 440 2 8 12 40 23 70 11 31 22 67 25 80 3 14 14 61 25
105 11 44 22 100 26 125 3 25 8 59 11 75 17 117 21 194 19 370 -1 110 -8 232
-14 270 -6 39 -14 86 -17 105 -21 129 -68 300 -124 450 -87 236 -282 558 -440
726 l-40 43 0 309 c0 170 -3 324 -6 342 -4 18 -23 49 -43 70 -58 60 -149 66
-212 13 -52 -44 -59 -77 -59 -268 l0 -173 -107 72 c-60 40 -131 85 -159 100
l-52 28 -4 86 c-4 94 -18 126 -69 163 -36 26 -63 31 -117 24 -52 -8 -106 -52
-122 -100 l-11 -33 -52 18 c-62 22 -198 58 -247 66 -19 3 -38 8 -42 10 -46 28
-543 51 -698 33z"/>
</g>
</svg>
