<?xml version="1.0" standalone="no"?>
<!DOCTYPE svg PUBLIC "-//W3C//DTD SVG 20010904//EN"
 "http://www.w3.org/TR/2001/REC-SVG-20010904/DTD/svg10.dtd">
<svg version="1.0" xmlns="http://www.w3.org/2000/svg"
 width="512.000000pt" height="512.000000pt" viewBox="0 0 512.000000 512.000000"
 preserveAspectRatio="xMidYMid meet">
<metadata>
Created by potrace 1.11, written by Peter Selinger 2001-2013
</metadata>
<g transform="translate(0.000000,512.000000) scale(0.100000,-0.100000)"
fill="#000000" stroke="none">
<path d="M900 4970 l0 -150 -150 0 -150 0 0 -150 0 -150 150 0 150 0 0 -150 0
-150 150 0 150 0 0 150 0 150 150 0 150 0 0 150 0 150 -150 0 -150 0 0 150 0
150 -150 0 -150 0 0 -150z"/>
<path d="M1810 4370 l0 -150 150 0 150 0 0 150 0 150 -150 0 -150 0 0 -150z"/>
<path d="M620 3905 c-313 -77 -556 -416 -609 -850 -71 -581 201 -1123 611
-1220 53 -12 188 -15 846 -15 l783 0 80 -79 79 -80 0 -628 0 -628 225 225 225
225 225 -225 225 -225 0 627 0 627 80 80 80 80 343 3 c334 3 343 4 389 26 141
70 252 245 293 467 10 50 20 96 24 103 3 8 39 24 78 37 234 74 420 264 495
505 33 108 33 312 0 420 -76 245 -257 428 -507 511 l-70 24 -827 3 c-728 2
-828 1 -828 -12 0 -13 -5 -13 -41 -1 -33 12 -106 15 -373 14 -203 -1 -313 -4
-283 -9 217 -37 392 -293 523 -769 19 -68 33 -125 31 -126 -1 -2 -29 -10 -62
-20 -136 -39 -288 -139 -378 -250 -56 -69 -118 -186 -142 -268 l-16 -57 -502
1 -502 0 55 21 c70 27 172 128 218 216 72 135 118 322 102 414 -82 506 -384
851 -740 847 -41 0 -100 -7 -130 -14z"/>
<path d="M4210 1370 l0 -150 -150 0 -150 0 0 -150 0 -150 150 0 150 0 0 -150
0 -150 150 0 150 0 0 150 0 150 150 0 150 0 0 150 0 150 -150 0 -150 0 0 150
0 150 -150 0 -150 0 0 -150z"/>
<path d="M3610 470 l0 -150 150 0 150 0 0 150 0 150 -150 0 -150 0 0 -150z"/>
</g>
</svg>
